<?xml version="1.0" encoding="iso-8859-1"?>
<!-- Generator: Adobe Illustrator 18.1.1, SVG Export Plug-In . SVG Version: 6.00 Build 0)  -->
<svg version="1.1" id="Capa_1" xmlns="http://www.w3.org/2000/svg" xmlns:xlink="http://www.w3.org/1999/xlink" x="0px" y="0px"
	 viewBox="0 0 28.318 28.318" style="enable-background:new 0 0 28.318 28.318;" xml:space="preserve">
<g>
	<path d="M26.749,9.346c-0.678,0.179-0.585,1.132-1.002,1.576c-1.587,0.268-3.104,0.613-4.576,0.999
		c-0.176-0.683-0.888-0.832-1.145-1.43c0.23-0.241,0.308-0.645,0.568-0.859c0.487-0.039,1.158,0.11,1.432-0.142
		c-0.315-0.686-0.57-1.433-1.717-1.289c-0.751,0.752,0.212,1.688-1.001,2.146c-0.562-0.583-1.801-0.49-2.432-1.001
		c0.155-0.27,0.184-0.677,0.286-1c0.378-0.004,0.816,0.052,1.003-0.145c0-1.08-1.991-1.95-2.146-0.429
		c-0.189,0.617,0.678,0.175,0.568,0.715c-0.015,0.367-0.081,0.683-0.288,0.858C15.02,9.35,13.63,9.251,12.724,9.631
		c-0.115-0.357-0.39-0.562-0.427-1.003c0.459-0.061,0.829-0.217,0.718-0.856c-0.323-0.507-1.543-0.581-2.007-0.144
		c0,0.334,0,0.668,0,1c0.12,0.311,0.912-0.052,1.005,0.287c0.043,0.336,0.225,0.538,0.142,1.003
		c-1.159,0.272-1.803,1.061-2.721,1.574c-0.999-0.514,0-2.152-1.287-2.291c-0.766-0.081-1.544,0.885-1.144,2.146
		c4.103-0.35,0.421,1.45,0.857,4.008c-2.042,0.484-3.826,1.229-5.867,1.718c-0.442-0.037-0.24-0.713-0.858-0.574
		c-1.117,0.08-1.422,1.981-0.859,2.861c0.659,0.037,0.692,0.151,1.29,0c0.378-0.291,0.386-0.949,0.575-1.43
		c1.979-0.643,3.718-1.527,5.863-2.004c0.252,0.988,0.865,1.611,1.43,2.288c-0.35,0.922-1.315,0.368-1.86,1.003
		c-0.189,1.218,1.212,1.518,2.146,1.145c0.076-0.555-0.362-0.59-0.429-1.004c0.33-0.195,0.334-0.712,0.716-0.857
		c0.64,0.363,1.855,0.147,2.575,0.43c0.331,1.191-0.745,0.975-0.715,1.859c0.347,0.927,2.389,0.727,2.146-0.571
		c-0.026-0.451-0.771-0.185-0.718-0.718c-0.101-0.438,0.146-0.521,0.146-0.857c1.173-0.062,1.973-0.505,2.856-0.855
		c0.16,0.412,0.305,0.842,0.575,1.144c-0.186,0.39-0.636,0.509-0.575,1.146c0.805,0.594,2.281-0.181,2.293-1.289
		c-0.255-0.502-1.181-0.109-1.432-0.285c-0.112-0.315-0.301-0.559-0.286-1.002c0.901-0.193,1.34-0.853,2.288-1
		c0.935,0.457,0.65,1.145,0.714,2.004c1.05-0.047,1.804-0.393,1.861-1.432c-0.665-0.611-2.048,0.271-2.146-1.002
		c0.731-0.313,1.059-1.037,1.717-1.429c0.338-0.004,0.421,0.245,0.855,0.144c0.036,0.633,0.104,1.23,0.715,1.285
		c1.075,0.153,1.062-1.772,0.575-2.289c-0.842-0.072-1.21,1.073-2.146,0.429c0.247-0.561,0.027-1.525,0.141-1.859
		c1.396-0.324,2.812-0.624,4.293-0.858c0.454,0.906,1.987,1.356,2.579,0.284C28.224,10.541,27.868,9.563,26.749,9.346z
		 M13.016,16.211c-1.45-0.196-2.842-3.409-1.002-4.292c1.423-0.682,3.862,0.455,4.006,1.717
		C16.162,14.944,14.328,16.392,13.016,16.211z M19.308,14.641c-2.489,0.061-1.33-4.187,0.431-2.72
		C19.682,12.912,19.969,14.249,19.308,14.641z"/>
</g>
<g>
</g>
<g>
</g>
<g>
</g>
<g>
</g>
<g>
</g>
<g>
</g>
<g>
</g>
<g>
</g>
<g>
</g>
<g>
</g>
<g>
</g>
<g>
</g>
<g>
</g>
<g>
</g>
<g>
</g>
</svg>
